PathFileType	4	(X/Y/Z)	D:\TRACE\spotREDO_2-26-24\spot_justBody_Motion_3_1-v60.trc
DataRate	CameraRate	NumFrames	NumMarkers	Units	OrigDataRate	OrigDataStartFrame	OrigNumFrames
100.00	100.00	      42	9	mm	100.00	4376	      7000
Frame#	Time	front left toe			Front right toe			aft left toe			aft right toe			Arm			FL body			FR body			AL Body			AR Body			
		X1	Y1	Z1	X2	Y2	Z2	X3	Y3	Z3	X4	Y4	Z4	X5	Y5	Z5	X6	Y6	Z6	X7	Y7	Z7	X8	Y8	Z8	X9	Y9	Z9	

4376	43.750	-162.10426	30.07122	-145.81927	338.10214	27.27764	-114.46310	-131.15338	136.91988	232.41179	263.80975	9.43068	304.03729	95.82188	814.89636	-366.46695	17.40458	553.80109	-344.89725	173.22540	560.73138	-348.91306	35.29219	551.75281	538.85339	176.28291	558.82129	536.99689	
4377	43.760	-161.77530	30.05949	-145.88727	338.30106	27.30740	-114.42036	-129.12057	136.69859	230.77611	264.17944	9.34394	304.02304	96.02635	815.01111	-366.17334	17.75117	553.88232	-344.76358	173.60120	560.76508	-348.75717	35.90677	551.27826	539.08459	176.89209	558.44354	537.12903	
4378	43.770	-161.56163	30.01976	-145.96385	338.65570	27.40413	-114.39645	-126.25807	133.90936	229.72224	264.61896	9.28287	304.00293	96.19034	815.22742	-365.85727	17.96793	553.97974	-344.63440	173.82419	560.85834	-348.64310	36.07410	550.85944	539.13873	177.22951	558.09686	537.19916	
4379	43.780	-161.30301	30.01104	-145.89635	338.91660	27.60331	-114.30956	-122.67947	132.78670	228.49471	265.07584	9.19200	304.11929	96.37289	815.37366	-365.45465	18.41581	554.08405	-344.40695	174.26906	561.13440	-348.38724	36.34452	550.09668	539.24176	177.40344	557.65161	537.36139	
4380	43.790	-161.02344	29.98893	-145.90176	339.11716	27.60134	-114.34822	-120.92094	132.42686	226.99448	265.42612	9.29573	304.28510	96.69093	815.63361	-364.82315	18.80035	554.11975	-344.27124	174.47394	561.28162	-348.15927	36.83537	549.75031	539.46100	177.64737	557.32452	537.63647	
4381	43.800	-160.89398	29.98470	-145.88181	339.24234	27.55610	-114.36861	-117.69488	132.26869	224.54588	265.57352	9.30379	304.26819	96.97295	815.78760	-364.38004	19.02184	554.17950	-344.04031	174.65004	561.34717	-347.98135	37.00889	549.59052	539.88947	178.11139	556.87671	538.11194	
4382	43.810	-160.55734	29.93708	-145.85081	339.44772	27.55047	-114.36987	-116.26024	132.71973	222.09967	265.64136	9.27009	304.25143	97.52630	815.72858	-363.98254	19.36539	554.25421	-343.63385	174.83064	561.33429	-347.79636	37.33167	549.42377	540.21399	178.25047	556.69055	538.27234	
4383	43.820	-160.25635	29.94081	-145.86288	339.59573	27.51663	-114.37724	-113.58095	132.72864	220.35364	265.66751	9.24553	304.24496	97.76499	815.76984	-363.74875	19.77606	554.30664	-343.16162	175.29851	561.31250	-347.30408	37.50650	549.26031	540.46167	178.59848	556.39136	538.44281	
4384	43.830	-159.89687	29.90970	-145.82623	339.87051	27.55684	-114.26625	-111.51898	132.36839	218.26166	265.68597	9.23407	304.21219	98.06540	815.72192	-363.26889	19.93192	554.48254	-342.78769	175.71544	561.19055	-346.48196	37.76480	549.11395	540.75732	179.09789	556.10809	538.78522	
4385	43.840	-159.65636	29.98153	-145.81412	340.19275	27.61849	-114.18286	-109.38039	131.14455	216.94438	265.83948	9.22511	304.21997	98.45943	815.72278	-362.87946	20.06793	554.63879	-342.60928	175.95534	561.20447	-346.03201	37.91265	549.03119	541.26819	177.48615	556.63458	539.22681	
4386	43.850	-159.44051	29.78369	-145.66321	340.43408	27.59011	-114.20362	-106.54725	127.94778	214.69534	266.01349	9.26042	304.23605	98.73095	815.88269	-362.34131	20.09195	554.75641	-342.26907	176.16028	561.26935	-345.74100	38.09924	548.87598	541.69183	178.49403	556.15588	539.88977	
4387	43.860	-158.94896	29.69359	-145.70979	340.58655	27.56530	-114.21234	-104.91883	121.68469	212.78667	266.45444	9.40416	304.33337	98.84029	815.90021	-361.86630	20.28275	554.71576	-341.83630	176.16260	561.60468	-345.81906	38.26185	548.72626	542.07831	179.31328	555.90820	540.36963	
4388	43.870	-158.61032	29.57012	-145.72258	340.75879	27.57930	-114.16481	-102.56333	113.33117	210.66324	266.80261	9.53093	304.40424	98.85684	816.07300	-361.42633	20.49015	554.80267	-341.15302	176.46869	561.81891	-345.32834	38.42720	548.48688	542.47491	179.44681	555.67474	540.64655	
4389	43.880	-159.13722	29.76478	-145.64662	340.95020	27.61963	-114.10934	-100.81118	102.96593	209.12302	267.13245	9.59539	304.45587	98.93602	816.28955	-360.81717	20.67805	554.93689	-340.61240	176.74825	561.97369	-344.65729	38.53734	548.00433	542.95831	179.61800	555.29944	540.89941	
4390	43.890	-159.10138	29.94544	-145.67622	341.10809	27.65111	-114.09586	-99.61068	91.19803	207.74289	267.55365	9.64675	304.46680	99.12771	816.48633	-360.06735	20.86109	555.15845	-340.32877	176.60622	562.16406	-344.20264	38.55479	547.69470	543.40503	179.93555	554.95050	541.59973	
4391	43.900	-158.92738	29.98353	-145.61313	341.23267	27.70380	-114.06111	-98.08791	79.54958	206.77376	267.75397	9.56723	304.46924	98.97397	816.82318	-359.45261	21.00491	555.39032	-339.79907	176.53134	562.57507	-343.79660	38.54935	547.46863	544.00464	179.96344	554.69836	542.13837	
4392	43.910	-158.68207	29.83516	-145.56071	341.31879	27.72039	-114.02569	-96.50249	68.46177	206.32523	267.83347	9.43827	304.54727	99.18247	817.01599	-358.93512	20.59336	555.97424	-339.89847	176.71088	562.74365	-343.39481	38.57273	547.15393	544.51569	179.76511	554.46960	542.60590	
4393	43.920	-158.43413	29.71521	-145.56442	341.46262	27.74671	-114.03761	-94.66146	57.36784	205.80954	267.92892	9.35229	304.53467	99.49124	817.18884	-357.91843	20.77538	555.99390	-339.22241	177.03864	562.95691	-342.95804	38.63666	546.95117	544.85968	179.80579	554.26312	543.01117	
4394	43.930	-158.24548	29.63408	-145.56848	341.63730	27.78188	-114.06522	-94.23962	46.74209	205.62885	267.97702	9.32117	304.54312	99.37882	817.34222	-357.50879	21.35988	555.75488	-338.24692	177.17551	562.94019	-342.15164	38.96948	546.64874	545.35254	180.02319	554.07892	543.56140	
4395	43.940	-158.12630	29.74453	-145.59993	341.74606	27.76498	-114.09932	-92.69595	36.39451	204.98750	268.01721	9.30830	304.55084	99.44239	817.40875	-356.99344	21.28771	556.01074	-337.84644	177.20164	562.98096	-341.82657	39.09616	546.46631	545.97546	180.15599	553.89325	544.15125	
4396	43.950	-157.84306	29.64641	-145.51582	341.87518	27.75375	-114.13251	-92.60332	26.03400	204.22403	268.04691	9.33862	304.52902	99.52028	817.40479	-356.48669	21.32152	555.90192	-337.39301	177.08739	563.03864	-341.32245	39.17868	546.48260	546.56122	180.03418	553.86420	544.69672	
4397	43.960	-157.67552	29.58700	-145.47432	341.99072	27.75632	-114.14605	-92.08832	15.72613	204.45430	268.05005	9.33018	304.53049	99.64610	817.40503	-355.64087	21.56484	555.91687	-336.66379	177.13231	562.99713	-340.20197	39.15432	546.50818	547.00110	180.16194	553.75977	545.31793	
4398	43.970	-157.39894	29.40174	-145.32916	342.15454	27.70889	-114.13165	-92.68066	13.11754	201.10225	268.03635	9.32677	304.55151	99.57968	817.47937	-355.03470	21.83079	555.93701	-336.02811	177.17709	562.95587	-339.56406	39.17887	546.46637	547.66010	180.51141	553.81665	545.96631	
4399	43.980	-157.35509	29.38157	-145.16287	342.49139	27.20096	-113.76073	-93.08706	12.61517	202.70041	268.05923	9.40100	304.59521	99.75259	817.55634	-354.71155	21.10308	555.94800	-335.30826	177.20773	562.71375	-339.46542	40.00191	548.14868	548.50153	180.91986	554.80701	546.41980	
4400	43.990	-157.41089	29.36546	-144.99556	342.54324	27.24212	-113.87027	-92.92170	13.55864	204.06241	268.55713	10.05770	304.69357	100.22450	817.40967	-354.59613	20.85489	555.61084	-334.47729	176.99890	562.25098	-338.84647	40.15508	549.32324	549.10168	181.62096	556.12433	547.00903	
4401	44.000	-157.53763	29.70403	-144.76804	342.51602	27.39419	-113.91312	-92.12716	14.26978	203.35397	268.81348	10.09203	304.64313	100.52670	817.05322	-354.37537	20.47582	555.93848	-334.46384	176.62234	562.17609	-338.11389	40.52753	550.29437	549.86871	181.77213	556.74548	547.70654	
4402	44.010	-157.25829	29.83314	-144.91206	342.54297	27.56808	-113.97356	-91.96120	14.30857	203.91962	268.97015	10.04780	304.71881	100.07692	816.80841	-353.98248	20.93453	555.96271	-333.29227	176.44568	562.65051	-337.73706	40.79699	550.31763	550.54041	181.86438	557.18335	548.22369	
4403	44.020	-157.06973	29.97239	-144.86919	342.76636	27.63764	-113.89820	-91.96899	14.07039	204.07167	269.00644	9.93956	304.73724	99.49451	817.07080	-353.25571	21.09064	556.47876	-332.66461	176.49136	563.09485	-337.28909	41.12344	550.15082	551.03101	182.11946	556.89996	548.64636	
4404	44.030	-156.87788	29.96557	-144.94205	342.90399	27.63078	-113.85458	-91.89896	14.00029	203.90837	268.71185	9.60729	304.63107	99.16010	817.78210	-352.52582	20.96361	557.02008	-332.34634	176.69249	563.71472	-336.69437	41.74085	549.51697	551.18042	182.38861	556.38525	548.92181	
4405	44.040	-156.85852	29.94567	-144.96033	342.99405	27.54778	-113.77584	-91.84647	13.94819	203.78886	268.78830	9.43873	304.56308	99.21019	818.83801	-351.63269	20.98878	557.39587	-332.15518	176.93535	564.26428	-336.32263	41.60508	548.92554	551.40259	182.48203	556.08246	549.27045	
4406	44.050	-156.88286	29.96065	-144.88846	343.10495	27.51723	-113.69183	-91.86864	13.87637	203.85802	268.84961	9.35243	304.55447	99.57793	819.36066	-351.18173	21.00636	557.91473	-331.89777	176.79813	564.70245	-336.11737	41.62079	548.36615	551.69983	182.57144	555.59479	549.76581	
4407	44.060	-156.94617	30.00858	-144.75978	343.05325	27.49665	-113.70254	-91.88854	13.81636	203.89516	268.84912	9.33866	304.68222	99.95135	819.62598	-350.55423	20.53696	558.54706	-331.93231	176.78284	564.91040	-335.88443	41.80195	547.98315	551.96075	182.22943	555.30902	550.04376	
4408	44.070	-156.92091	29.99554	-144.73138	343.11691	27.61672	-113.66872	-91.90185	13.79757	204.03247	268.84363	9.30890	304.72913	99.91299	819.69733	-350.18509	20.53029	558.62744	-331.86679	176.74878	564.93134	-335.75482	41.59999	548.03680	552.13019	182.56187	555.10706	550.35718	
4409	44.080	-156.89774	29.98581	-144.71104	343.06082	27.64462	-113.67359	-91.88454	13.74332	204.16371	268.78873	9.34573	304.80347	99.82347	819.65747	-350.02460	20.65062	558.50104	-331.52396	176.56142	565.37103	-336.01797	41.19562	548.24658	552.43658	182.24185	555.15442	550.49402	
4410	44.090	-156.89290	29.95264	-144.67496	343.15500	27.62564	-113.60474	-91.82431	13.62311	204.18797	268.80786	9.28332	304.76382	99.74788	819.55811	-349.96039	20.72753	558.38947	-331.33636	176.58437	565.41870	-335.88181	41.02860	548.20593	552.65167	182.07475	555.21527	550.56842	
4411	44.100	-156.84537	30.00242	-144.66077	343.15781	27.58263	-113.61035	-91.86623	13.61200	204.18085	268.74692	9.20922	304.83600	99.74181	819.61334	-349.87943	20.76185	558.52704	-331.26141	176.52196	565.56702	-335.78485	40.82962	548.13477	552.71234	182.01744	555.11896	550.64362	
4412	44.110	-156.93266	30.20320	-144.68015	343.07797	27.66466	-113.62968	-91.83500	13.59089	204.10782	268.76886	9.23440	304.92343	99.77760	819.72119	-349.80310	20.74993	558.70850	-331.26553	176.46053	565.68951	-335.75214	40.75997	548.12000	552.78510	181.91719	555.01385	550.73242	
4413	44.120	-156.93752	30.26172	-144.62769	343.07339	27.68741	-113.57707	-91.88751	13.56394	204.13521	268.66983	9.15389	304.90677	99.73074	819.82880	-349.71655	20.65161	558.78510	-331.30005	176.40285	565.70795	-335.72070	40.62532	548.10248	552.80566	181.78072	555.00708	550.76422	
4414	44.130	-156.98523	30.20433	-144.60945	342.98358	27.74611	-113.60997	-91.89440	13.47339	204.16711	268.60391	9.11974	304.85236	99.66565	819.81940	-349.70398	20.43339	558.79132	-331.33020	176.34766	565.69574	-335.70905	40.41830	548.16602	552.77899	181.52525	554.98553	550.74133	
4415	44.140	-156.86842	30.06246	-144.53957	342.98224	27.76546	-113.60793	-91.86131	13.27689	204.14822	268.61057	8.99747	304.83041	99.50169	819.74945	-349.77145	20.29932	558.66571	-331.31064	176.22818	565.66162	-335.71652	40.26179	548.19623	552.75616	181.39764	554.98065	550.69781	
4416	44.150	-156.89487	30.02886	-144.50098	342.93579	27.88764	-113.65430	-91.89690	13.28143	204.13287	268.61432	8.88864	304.98764	99.37749	819.72632	-349.80667	20.08542	558.66748	-331.42554	176.03683	565.69281	-335.79846	40.13246	548.20526	552.71863	181.19688	555.01068	550.56055	
4417	44.160	-156.93141	30.21921	-144.49139	342.88177	27.89226	-113.61803	-91.92296	13.29304	204.18753	268.55771	8.91545	304.89166	99.09038	819.77209	-349.88779	19.85000	558.73279	-331.49908	175.89017	565.75702	-335.88794	40.09635	548.23651	552.67236	181.12755	555.07983	550.45605	
